<?xml version="1.0" encoding="UTF-8"?>
<svg xmlns="http://www.w3.org/2000/svg" xmlns:xlink="http://www.w3.org/1999/xlink"
     width="1280.0" height="1280.0" viewBox="-640.0 -640.0 1280.0 1280.0">
<defs>
</defs>
<rect x="-640.0" y="-640.0" width="1280.0" height="1280.0" fill="#111" />
<path d="M83.7422485,-77.3281479 L80.3832016,-80.3592377 L83.9106369,-84.0303802" stroke="grey" fill="none" stroke-width="3" stroke-opacity="0.8" />
<path d="M-57.5330734,-139.21669 L-33.3692093,-139.486847 L-16.017662,-139.190567 L-8.76986504,-138.692368 L-5.06694794,-138.689987" stroke="grey" fill="none" stroke-width="3" stroke-opacity="0.8" />
<path d="M150.723831,15.9300976 L154.859879,9.95502281 L160.106155,2.65653753 L162.431854,-1.25892496 L163.815628,-4.03690052 L165.349503,-6.77378321" stroke="grey" fill="none" stroke-width="3" stroke-opacity="0.8" />
<path d="M-101.167725,-167.402802 L-85.995575,-183.991486 L-75.575943,-208.890594 L-77.0796509,-229.91098 L-86.2509918,-246.353836 L-104.353882,-261.987244 L-121.823975,-265.033295 L-139.214813,-262.309875 L-157.401764,-249.912445 L-165.627029,-229.490295 L-174.025879,-188.247498" stroke="grey" fill="none" stroke-width="3" stroke-opacity="0.8" />
<path d="M-45.788868,-158.784012 L-42.4724159,-148.035324 L-32.9450493,-139.06546" stroke="grey" fill="none" stroke-width="3" stroke-opacity="0.8" />
<path d="M63.0888901,-80.5348129 L59.9480896,-83.4036789 L59.2791138,-98.4683914 L61.5979004,-106.94519 L61.7138939,-125.829788 L59.3153648,-127.541092 L56.8280602,-127.502594" stroke="grey" fill="none" stroke-width="3" stroke-opacity="0.8" />
<path d="M123.518715,-11.4007416 L133.37851,4.38093185 L146.535095,20.4952202 L153.153442,30.8383102 L166.522308,47.9693375 L182.587997,61.8369102" stroke="grey" fill="none" stroke-width="3" stroke-opacity="0.8" />
<path d="M-213.766159,158.584839 L-212.788422,190.6129" stroke="grey" fill="none" stroke-width="3" stroke-opacity="0.8" />
<path d="M-31.6430378,-31.4724636 L-32.8283882,-16.3430882" stroke="grey" fill="none" stroke-width="3" stroke-opacity="0.8" />
<path d="M-174.406265,-42.685379 L-174.608658,-83.868576 L-173.970795,-102.906288" stroke="grey" fill="none" stroke-width="3" stroke-opacity="0.8" />
<path d="M-27.2676182,-37.1688728 L-31.635416,-31.3689442 L-35.0347099,-37.7038116" stroke="grey" fill="none" stroke-width="3" stroke-opacity="0.8" />
<path d="M-166.283508,-231.056274 L-153.345551,-206.893158" stroke="grey" fill="none" stroke-width="3" stroke-opacity="0.8" />
<path d="M-180.027359,37.0578384 L-180.930405,52.3369598 L-185.42128,73.4417267 L-190.040344,87.367363 L-195.888977,105.862885 L-205.265518,130.067413 L-213.794632,158.725449 L-221.739594,186.793564 L-221.769989,213.032211 L-213.444489,233.035919 L-200.422699,246.512756 L-180.123749,253.736969 L-157.331009,250.685608 L-136.532257,239.983826 L-124.678741,223.900635 L-121.108467,196.60527 L-125.925446,179.015121 L-145.676315,151.955795 L-169.864014,126.030396 L-184.646179,113.37561 L-195.968094,105.810333 L-211.676834,91.7998505 L-232.703461,70.0248871 L-253.113266,42.0686684 L-264.130371,18.2176208 L-265.678925,-7.20732975 L-255.970261,-30.4222336 L-232.538849,-54.9525223 L-202.390625,-81.974968 L-189.800476,-91.5625687 L-173.882141,-103.135651 L-153.183762,-115.5448 L-116.000389,-141.964432" stroke="grey" fill="none" stroke-width="3" stroke-opacity="0.8" />
<path d="M142.81218,25.0427227 L140.462173,22.5891838 L139.321945,20.4627514 L137.537628,18.7455311 L135.621216,15.7248554 L132.15567,11.5433731 L130.91185,9.77388763 L128.744736,9.05151081 L127.27887,9.57719612 L126.883514,11.2571087 L127.031372,14.6484814 L126.47097,20.4824028 L126.50946,28.6805401 L125.890602,33.0153389 L125.966446,39.027298 L126.33564,42.383873 L126.522293,43.9974327 L127.553818,45.1803513" stroke="grey" fill="none" stroke-width="3" stroke-opacity="0.8" />
<path d="M-145.659943,152.206772 L-142.988892,173.362595" stroke="grey" fill="none" stroke-width="3" stroke-opacity="0.8" />
<path d="M127.014381,45.1728325 L129.184692,43.0274277 L131.94101,39.4966736 L133.447754,37.3945999 L136.825668,34.0032539 L140.025742,30.341713 L142.093384,28.2228279 L142.427017,26.7410336 L142.414261,25.1428738 L141.691849,23.5953941" stroke="grey" fill="none" stroke-width="3" stroke-opacity="0.8" />
<path d="M156.116547,26.9166794 L158.477936,30.0298233 L163.011292,35.9990997 L165.778641,40.2467422 L168.0952,42.4192543 L169.815964,42.9787598 L170.931274,43.4159698 L172.225235,43.1743736 L172.526443,41.9651718 L172.45784,40.1707764 L173.291397,37.0402298 L172.830093,33.0629425 L173.410263,29.6209965 L173.11409,26.6843224 L173.228638,24.329319 L174.075745,22.1103992 L174.293091,18.3016453 L174.090729,14.947382 L173.42775,13.0440693 L173.767212,10.3794098 L174.155563,8.75043869 L174.455994,4.89659309" stroke="grey" fill="none" stroke-width="3" stroke-opacity="0.8" />
<path d="M130.981491,58.0904999 L131.905945,60.3678513 L133.626175,61.0883255 L135.845093,62.3379707 L137.336334,63.9841156 L140.257797,65.3718491 L141.573181,66.4630127 L143.537643,66.7732697 L145.551956,67.3166428 L149.465012,67.4240036 L155.168457,67.2608032 L159.031921,65.6062775 L161.772247,64.9551392 L164.344482,62.8615913 L167.003723,59.7591972 L166.635864,57.090992 L165.030182,54.5554237 L161.049683,49.6705399 L156.062241,43.2042999 L154.546982,40.2774391 L151.911896,37.6957703 L150.855499,36.3235741 L149.340912,35.8968353 L148.245224,36.2782669 L146.893234,37.5810852 L145.291245,39.1807594 L143.394592,42.4979057 L141.55687,45.1617775 L140.945953,47.0489578 L137.917801,52.090004 L135.600754,54.3695221 L134.061829,55.3239212 L133.21405,56.8246384 L132.083405,58.3013268" stroke="grey" fill="none" stroke-width="3" stroke-opacity="0.8" />
<path d="M165.612579,-5.6817317 L162.592224,-7.53110647 L159.932007,-9.46874714 L156.608643,-10.6764793 L154.873169,-10.2910061 L152.418854,-10.533946 L149.966492,-11.072135 L147.336548,-10.4679422 L141.335876,-9.37039566 L138.966049,-7.96023417 L136.411652,-5.66976404 L135.681122,-4.07698727 L136.223053,-2.44396114 L138.301102,1.49743223 L141.502731,5.9708147 L144.916367,10.9577141 L147.582428,14.4649487 L148.899689,15.1888428 L150.555832,14.9067287 L151.766464,14.1169167" stroke="grey" fill="none" stroke-width="3" stroke-opacity="0.8" />
<path d="M149.250473,-155.898987 L149.047791,-150.609818 L148.943573,-123.261375 L146.910355,-118.332336 L149.210388,-113.388046 L148.574097,-102.309769 L149.18483,-85.3668747 L151.446991,-83.1320419 L153.155548,-80.813858 L152.253494,-75.4578094" stroke="grey" fill="none" stroke-width="3" stroke-opacity="0.8" />
<path d="M115.919968,28.116909 L115.956245,7.58106041 L124.810287,-10.7953186 L139.603256,-17.7260094 L159.639481,-19.1373444 L175.005798,-10.049861 L184.007339,3.51332045 L183.121094,31.3294487 L182.878937,48.7728844 L175.602966,66.5412369 L160.653992,75.0662231 L140.599197,75.1799469 L121.633377,65.8208618 L115.737183,45.6857147 L115.864159,27.7080326" stroke="grey" fill="none" stroke-width="3" stroke-opacity="0.8" />
<path d="M175.805267,-11.1439953 L167.045319,3.78238487 L153.050797,20.3635445 L145.400253,32.2294731 L130.421448,49.9009094 L119.885002,62.0582924" stroke="grey" fill="none" stroke-width="3" stroke-opacity="0.8" />
<path d="M-32.7189255,-16.3975792 L-33.2660065,-2.47652149" stroke="grey" fill="none" stroke-width="3" stroke-opacity="0.8" />
<path d="M-75.5401611,-208.866196 L-85.7476044,-201.133621 L-116.866913,-199.113678" stroke="grey" fill="none" stroke-width="3" stroke-opacity="0.8" />
<path d="M174.425308,5.45004654 L172.465118,6.73917961 L171.68988,8.10304546 L169.378311,9.34775352 L167.768127,10.4709387 L166.460587,12.6044407 L163.105804,16.8531227 L160.420334,19.7113972 L158.488571,22.9450798 L156.780884,25.2839146 L156.857666,27.3395653" stroke="grey" fill="none" stroke-width="3" stroke-opacity="0.8" />
<path d="M80.4879074,-80.3674774 L62.9829063,-80.5552292" stroke="grey" fill="none" stroke-width="3" stroke-opacity="0.8" />
<path d="M-174.63652,-43.7966537 L-176.303131,-7.58501482 L-180.253693,37.137085" stroke="grey" fill="none" stroke-width="3" stroke-opacity="0.8" />
<path d="M-179.289383,-179.899704 L-183.386429,-217.083817 L-179.228592,-241.581696 L-166.881897,-260.999969 L-148.906799,-271.964111 L-117.662682,-277.389923 L-96.4499054,-270.859741 L-75.3335876,-250.276306 L-64.5240784,-225.036835 L-67.1130142,-188.54007 L-79.8323517,-167.442871 L-105.859901,-148.423401" stroke="grey" fill="none" stroke-width="3" stroke-opacity="0.8" />
<path d="M-173.83699,-102.738388 L-174.960327,-122.896332 L-179.440689,-183.404968" stroke="grey" fill="none" stroke-width="3" stroke-opacity="0.8" />
<path d="M-212.722336,190.154572 L-212.91684,207.671158 L-208.66188,222.363647 L-200.50528,234.753571 L-186.665222,242.631271 L-169.13002,244.31041 L-150.782547,238.584778 L-136.269623,225.973068 L-131.241943,208.028091 L-131.658615,191.27829 L-143.925674,172.939194" stroke="grey" fill="none" stroke-width="3" stroke-opacity="0.8" />
<path d="M-232.615646,70.0167847 L-247.157318,37.5973129 L-255.119736,16.659338 L-256.829712,-3.44489956 L-250.392731,-23.6252937 L-232.569977,-54.8899193" stroke="grey" fill="none" stroke-width="3" stroke-opacity="0.8" />
<path d="M131.967117,-122.748825 L135.800522,-117.672379" stroke="grey" fill="none" stroke-width="3" stroke-opacity="0.8" />
<path d="M146.107269,20.4399872 L152.917862,20.4768085 L152.3965,30.1335297 L146.268555,31.1412659 L146.70108,20.1640911" stroke="grey" fill="none" stroke-width="3" stroke-opacity="0.8" />
<path d="M-202.880386,123.497482 L-206.792877,132.9953 L-215.730408,153.558228 L-221.600098,170.993042 L-224.119308,190.97879 L-221.347412,206.962616" stroke="grey" fill="none" stroke-width="3" stroke-opacity="0.8" />
<path d="M83.7422485,-77.3281479 L80.3832016,-80.3592377 L83.9106369,-84.0303802" stroke="grey" fill="none" stroke-width="3" stroke-opacity="0.8" />
<path d="M-57.5330734,-139.21669 L-33.3692093,-139.486847 L-16.017662,-139.190567 L-8.76986504,-138.692368 L-5.06694794,-138.689987" stroke="grey" fill="none" stroke-width="3" stroke-opacity="0.8" />
<path d="M-234.74646,63.7556839 L-239.010269,61.1509171 L-246.32309,55.1672096 L-249.472992,50.668354" stroke="grey" fill="none" stroke-width="3" stroke-opacity="0.8" />
<path d="M-100.883888,-147.032761 L-90.9804916,-154.693832 L-78.3748932,-164.714828 L-67.1240463,-183.283173 L-64.2552795,-200.533325 L-63.0097961,-228.6754 L-78.5025177,-255.911667 L-99.250824,-273.945587 L-113.836334,-278.451355 L-133.582397,-278.285095 L-153.66185,-272.520782 L-165.534637,-263.68866" stroke="grey" fill="none" stroke-width="3" stroke-opacity="0.8" />
<path d="M154.903015,-22.4816856 L133.994339,-22.1470985 L121.939644,-16.4636459 L113.921059,-7.7827177 L110.225372,3.15908289 L110.228287,17.6484413 L110.783287,36.1321793 L110.758301,48.5996819 L113.425888,60.9339142 L120.119781,70.5927277 L127.126991,75.9028091" stroke="grey" fill="none" stroke-width="3" stroke-opacity="0.8" />
<path d="M163.594849,-11.012991 L168.182922,-6.24524307 L168.724625,-0.303175926 L164.301392,6.56872368 L157.752243,14.897892 L149.757492,26.6472206 L142.9496,34.8947372 L136.708893,42.3747177 L129.95459,49.1109619 L126.559616,56.0563278 L127.565605,63.6963806 L132.773926,71.1224442" stroke="grey" fill="none" stroke-width="3" stroke-opacity="0.8" />
<path d="M61.4977264,-26.0427132 L61.1084213,-29.8476524 L59.7466698,-33.1403084 L57.9925995,-34.7104034 L56.3672943,-35.3286743 L54.8662567,-35.5499992 L51.6181946,-35.6866493" stroke="grey" fill="none" stroke-width="3" stroke-opacity="0.8" />
<path d="M150.723831,15.9300976 L154.859879,9.95502281 L160.106155,2.65653753 L162.431854,-1.25892496 L163.815628,-4.03690052 L165.349503,-6.77378321" stroke="grey" fill="none" stroke-width="3" stroke-opacity="0.8" />
<path d="M-242.675644,205.590469 L-241.174667,195.88205" stroke="grey" fill="none" stroke-width="3" stroke-opacity="0.8" />
<path d="M-248.168839,77.1251373 L-255.279953,65.0956726 L-267.826874,48.6252213 L-273.944641,37.6921158" stroke="grey" fill="none" stroke-width="3" stroke-opacity="0.8" />
<path d="M115.727295,23.340456 L115.76001,37.0753136 L116.297813,52.9029198 L118.608292,63.6072044 L124.138184,71.9601822 L130.653992,77.8821182 L138.992264,80.6403046 L150.605148,80.7734375" stroke="grey" fill="none" stroke-width="3" stroke-opacity="0.8" />
<path d="M-90.090065,-24.1884727 L-89.3724442,-26.3490009 L-89.0382996,-29.2879848 L-88.8256912,-32.5614548 L-88.789711,-35.0513077 L-88.9513245,-36.4189529 L-89.3218994,-37.0881577 L-89.888916,-37.6534233 L-90.8781433,-37.9814758 L-92.1509552,-38.0169029 L-93.2509689,-38.0048752" stroke="grey" fill="none" stroke-width="3" stroke-opacity="0.8" />
<path d="M-229.392258,87.5602722 L-223.99826,93.3261719 L-215.730438,99.9967499 L-210.278259,106.070038 L-208.267166,113.916565 L-212.147598,122.389786 L-218.583893,136.566437" stroke="grey" fill="none" stroke-width="3" stroke-opacity="0.8" />
<path d="M-20.2220078,-36.8772392 L-24.7543201,-36.7937775 L-27.4967136,-35.9495773 L-29.3661327,-34.0163231 L-30.359169,-32.136528" stroke="grey" fill="none" stroke-width="3" stroke-opacity="0.8" />
<path d="M-221.690536,87.9283218 L-212.792908,95.0576096 L-206.43866,99.315239" stroke="grey" fill="none" stroke-width="3" stroke-opacity="0.8" />
<path d="M35.4616852,-201.625366 L47.0345535,-198.918732 L66.6388245,-197.232742 L89.8182907,-197.074661 L104.561142,-189.74147 L111.298882,-181.557327 L123.927673,-158.749802 L129.019714,-150.188248" stroke="grey" fill="none" stroke-width="3" stroke-opacity="0.8" />
<path d="M79.6402206,-62.4188728 L80.1732101,-64.9603348 L80.0699158,-68.2138977 L80.3884277,-72.2354889 L80.9973297,-74.6051941 L80.91922,-76.1575317 L80.3043289,-77.0823059 L79.1185913,-77.6319275 L76.8565521,-77.3429794 L73.3226395,-77.1608124 L66.1683273,-76.9961853" stroke="grey" fill="none" stroke-width="3" stroke-opacity="0.8" />
<path d="M-181.906281,261.80719 L-163.960388,262.260895 L-143.917618,256.684967 L-130.547668,247.866867 L-118.478058,233.289612 L-111.149994,214.0448 L-110.634445,189.892075 L-119.80719,162.985764 L-127.537361,146.616364 L-141.901886,130.862534 L-152.869644,122.001556" stroke="grey" fill="none" stroke-width="3" stroke-opacity="0.8" />
<path d="M138.603607,-12.6183338 L131.98764,-5.4258337 L131.756744,1.87268639 L136.041626,8.84812737 L142.070953,15.8426886 L150.731125,26.8590202 L157.823212,36.8482399 L163.584457,44.0031509 L168.936813,52.4169083 L169.83757,60.7824402 L166.217987,67.4927521" stroke="grey" fill="none" stroke-width="3" stroke-opacity="0.8" />
<path d="M-93.8628006,-15.6534462 L-91.9088669,-15.5633793 L-90.7199173,-15.8366365 L-89.898056,-17.2710457 L-89.7981491,-19.2124748 L-89.956337,-21.8912315" stroke="grey" fill="none" stroke-width="3" stroke-opacity="0.8" />
<path d="M-171.792206,126.683205 L-155.445755,140.688309 L-137.102844,163.070908 L-127.076141,177.956772" stroke="grey" fill="none" stroke-width="3" stroke-opacity="0.8" />
<path d="M37.4651604,-39.0083847 L38.3788261,-38.1972122 L42.5867538,-38.2485619 L46.7249374,-38.6508713 L51.1202774,-38.9286995 L52.4395676,-39.6513252" stroke="grey" fill="none" stroke-width="3" stroke-opacity="0.8" />
<path d="M-101.167725,-167.402802 L-85.995575,-183.991486 L-75.575943,-208.890594 L-77.0796509,-229.91098 L-86.2509918,-246.353836 L-104.353882,-261.987244 L-121.823975,-265.033295 L-139.214813,-262.309875 L-157.401764,-249.912445 L-165.627029,-229.490295 L-174.025879,-188.247498" stroke="grey" fill="none" stroke-width="3" stroke-opacity="0.8" />
<path d="M1.55497122,-311.941071 L10.3563347,-300.568237 L8.89839554,-285.076385 L4.0080595,-271.603668 L0.391271114,-262.045776 L-3.58728456,-250.982635 L-8.55093193,-238.510239 L-13.7182817,-224.744995 L-16.5023613,-217.224442 L-18.4541721,-212.275375 L-18.2572994,-210.284424 L-17.3675613,-209.386673" stroke="grey" fill="none" stroke-width="3" stroke-opacity="0.8" />
<path d="M-185.394012,-80.3847809 L-184.419693,-62.0316696 L-184.034821,-44.8399773 L-183.060654,-34.2313805 L-182.90477,-28.6161957 L-182.821594,-26.3639469" stroke="grey" fill="none" stroke-width="3" stroke-opacity="0.8" />
<path d="M-45.788868,-158.784012 L-42.4724159,-148.035324 L-32.9450493,-139.06546" stroke="grey" fill="none" stroke-width="3" stroke-opacity="0.8" />
<path d="M63.0888901,-80.5348129 L59.9480896,-83.4036789 L59.2791138,-98.4683914 L61.5979004,-106.94519 L61.7138939,-125.829788 L59.3153648,-127.541092 L56.8280602,-127.502594" stroke="grey" fill="none" stroke-width="3" stroke-opacity="0.8" />
<path d="M-228.784546,178.343796 L-232.05957,196.764969 L-229.516907,213.779175 L-225.720703,226.940979 L-217.586853,240.284027 L-209.092163,250.031525 L-198.324387,256.627747" stroke="grey" fill="none" stroke-width="3" stroke-opacity="0.8" />
<path d="M-138.709122,-174.232773 L-149.766815,-177.159058 L-155.823242,-178.183975 L-160.029678,-175.926361 L-162.659561,-173.909668" stroke="grey" fill="none" stroke-width="3" stroke-opacity="0.8" />
<path d="M-71.0445862,55.8201332 L-71.3806915,61.0102119 L-71.25811,64.4108582 L-71.8327103,65.8307648 L-73.0528564,66.9649048 L-76.4756775,70.0170135 L-78.708252,71.1735382 L-80.6031952,70.9851379 L-90.4872055,70.9804611 L-98.0828629,70.9934311 L-106.438759,71.2357941 L-113.981506,71.2590942 L-118.010788,70.5891495 L-119.76754,69.7747955 L-121.846245,67.9862137 L-124.179688,65.6421967 L-125.864388,63.7811966 L-126.832184,61.0024681 L-126.850693,55.9445038 L-126.785507,51.2161865 L-126.830101,44.6018219 L-126.823235,39.1811333" stroke="grey" fill="none" stroke-width="3" stroke-opacity="0.8" />
<path d="M-185.095825,-178.477921 L-184.969055,-200.05571 L-186.107086,-210.413834 L-184.355118,-227.150635 L-179.333954,-241.920868" stroke="grey" fill="none" stroke-width="3" stroke-opacity="0.8" />
<path d="M-106.428635,-128.075836 L-108.571358,-145.610718 L-103.668922,-162.136215 L-96.3005371,-173.38179 L-87.3236084,-182.388336 L-78.9747543,-199.073456 L-77.7360764,-221.708115 L-86.7027206,-242.281189 L-97.7165375,-253.731216 L-110.737076,-260.546356 L-129.14473,-263.109497 L-146.567276,-257.633087 L-158.288605,-248.684814 L-164.808502,-237.694885 L-169.10817,-207.632782" stroke="grey" fill="none" stroke-width="3" stroke-opacity="0.8" />
<path d="M123.518715,-11.4007416 L133.37851,4.38093185 L146.535095,20.4952202 L153.153442,30.8383102 L166.522308,47.9693375 L182.587997,61.8369102" stroke="grey" fill="none" stroke-width="3" stroke-opacity="0.8" />
<path d="M-4.72598267,-202.178101 L-10.01089,-201.749374 L-12.7164764,-201.90799 L-15.4895458,-202.663925 L-17.3470745,-202.639359 L-19.7142372,-201.921585 L-21.1966133,-200.546539 L-22.1828079,-199.863907 L-22.9132919,-199.73114" stroke="grey" fill="none" stroke-width="3" stroke-opacity="0.8" />
<path d="M-170.807587,-45.5221176 L-175.82489,-1.51969528 L-178.159836,40.5495796" stroke="grey" fill="none" stroke-width="3" stroke-opacity="0.8" />
<path d="M-173.098709,-68.284874 L-173.752594,-85.7530823 L-173.320267,-99.6374817" stroke="grey" fill="none" stroke-width="3" stroke-opacity="0.8" />
<path d="M80.712677,-84.4451828 L80.6207809,-88.7921371 L81.1097107,-94.7023087 L82.2502365,-99.9008179 L83.2528687,-102.936676 L84.5665665,-108.51149 L88.5377426,-111.237343 L92.66082,-115.598915 L103.165504,-119.912994" stroke="grey" fill="none" stroke-width="3" stroke-opacity="0.8" />
<path d="M-213.766159,158.584839 L-212.788422,190.6129" stroke="grey" fill="none" stroke-width="3" stroke-opacity="0.8" />
<path d="M105.293259,18.2582569 L105.178589,14.5664225 L105.417801,10.0571957 L105.988266,3.29493451 L107.081909,-2.38346195 L107.974876,-5.72273064 L109.381683,-8.77567387 L112.235435,-12.993742 L116.447952,-17.2800198 L121.659943,-21.1734314 L126.607689,-24.1197281 L129.983978,-25.4035034 L132.286285,-26.1915951 L136.740829,-27.0817032 L140.294006,-27.5163002 L147.172211,-27.9777565 L154.216888,-27.904213 L161.098846,-27.2693329 L167.03978,-26.1735115 L171.654495,-24.6793652 L175.876831,-22.6607075 L179.571854,-20.2354279 L183.53302,-16.8403053 L186.863541,-13.2787485 L189.717728,-9.08846378 L191.285233,-5.75329065 L192.474228,-1.31263137 L193.264557,3.64808917 L193.627655,8.24273968 L193.752228,13.6776352 L193.712814,20.210701 L193.832947,27.5859337" stroke="grey" fill="none" stroke-width="3" stroke-opacity="0.8" />
<path d="M-31.6430378,-31.4724636 L-32.8283882,-16.3430882" stroke="grey" fill="none" stroke-width="3" stroke-opacity="0.8" />
<path d="M-191.713943,85.1506042 L-199.456375,106.984673 L-204.087219,118.062881 L-211.053802,134.796432 L-215.405151,149.393341" stroke="grey" fill="none" stroke-width="3" stroke-opacity="0.8" />
<path d="M-171.181946,-95.2644196 L-171.327744,-65.2749939 L-173.035049,-41.886467" stroke="grey" fill="none" stroke-width="3" stroke-opacity="0.8" />
<path d="M-57.6581268,96.1627197 L-44.8388138,96.7795868 L-28.5913887,104.210602 L10.0486565,99.8400955 L26.6526585,88.0951614 L54.2172699,67.4183655 L64.47155,52.3144531 L78.4122162,40.5258713 L81.1332703,29.8975258 L82.8943863,26.1553688" stroke="grey" fill="none" stroke-width="3" stroke-opacity="0.8" />
<path d="M-95.1373138,-109.846176 L-96.0740128,-108.174652 L-96.3389664,-106.490791 L-96.3387222,-100.969055 L-95.9464874,-93.9271317 L-95.5664063,-84.8600616 L-95.1648407,-73.5645599 L-95.2272263,-64.4282227 L-94.8038788,-56.483284 L-94.5309982,-49.9563217 L-94.0137253,-45.6634483 L-94.1767044,-40.7242165 L-94.6525574,-35.4333839 L-95.3424911,-31.8520317 L-95.1632004,-28.1091766 L-96.4213181,-25.6421261 L-99.1671448,-25.1914558 L-103.35585,-25.2577534 L-110.180145,-25.4795856 L-112.473412,-27.6704273 L-112.999619,-30.5587788 L-111.526917,-32.9783897 L-111.314331,-38.249527 L-110.191505,-42.3461456 L-109.960487,-45.2902451 L-110.416336,-48.7606468 L-109.3144,-51.8555374 L-107.09906,-52.9958611 L-105.236946,-52.8559532 L-102.626877,-52.4842873" stroke="grey" fill="none" stroke-width="3" stroke-opacity="0.8" />
<path d="M131.595917,-149.8647 L131.918381,-152.395462 L133.241928,-154.122482 L135.242722,-155.353241 L137.452866,-155.978119 L140.063873,-155.837082 L147.436646,-155.235825 L151.694794,-155.221115" stroke="grey" fill="none" stroke-width="3" stroke-opacity="0.8" />
<path d="M-191.299026,-92.6220169 L-177.885086,-101.395256 L-160.487,-111.374802 L-152.746399,-115.506866" stroke="grey" fill="none" stroke-width="3" stroke-opacity="0.8" />
<path d="M-84.8452606,-20.3324184 L-85.2702942,-18.5754032 L-84.4361038,-16.5186958 L-82.8705063,-15.625803 L-81.5922775,-15.5965614 L-79.2263184,-16.1233311" stroke="grey" fill="none" stroke-width="3" stroke-opacity="0.8" />
<path d="M-177.159332,-95.8853912 L-178.711563,-63.7434845 L-178.670074,-41.1030464" stroke="grey" fill="none" stroke-width="3" stroke-opacity="0.8" />
<path d="M-179.321884,-63.7185402 L-178.686081,-77.8699341 L-177.202011,-92.5011597" stroke="grey" fill="none" stroke-width="3" stroke-opacity="0.8" />
<path d="M60.3966675,-34.9524918 L61.9656792,-27.9992752 L62.8156815,-3.50762105 L65.494194,15.1110792 L70.4692459,22.5494804 L82.3933411,25.3924217 L108.433701,26.2573853" stroke="grey" fill="none" stroke-width="3" stroke-opacity="0.8" />
<path d="M-174.406265,-42.685379 L-174.608658,-83.868576 L-173.970795,-102.906288" stroke="grey" fill="none" stroke-width="3" stroke-opacity="0.8" />
<path d="M104.847626,29.5127544 L92.1681595,28.5346336 L84.2962265,29.1752014 L82.9058914,34.1624184 L81.325386,41.0285339 L76.1774979,46.2877808 L69.1905441,51.5072327 L64.5440369,57.0597954 L61.2010269,63.5755234 L55.5113754,70.4312897 L33.3618126,86.8070374 L25.7725868,92.6246185 L19.0831928,98.6626434 L10.1065807,102.884064 L-1.34491205,105.049377 L-12.176774,106.503265 L-22.8245449,108.02565 L-31.271986,108.027954 L-36.8632355,106.141579 L-41.6136894,102.700272 L-46.0758133,100.237289 L-57.3685074,99.5354614" stroke="grey" fill="none" stroke-width="3" stroke-opacity="0.8" />
<path d="M-54.7249336,-118.094902 L-59.3240814,-117.574326 L-65.9655991,-117.488007 L-70.9379044,-117.582207 L-77.0754776,-116.861221 L-84.9807281,-114.87204 L-88.966423,-114.216026 L-93.8167801,-111.564201 L-95.9580002,-108.400154" stroke="grey" fill="none" stroke-width="3" stroke-opacity="0.8" />
<path d="M147.253601,-118.118622 L132.602509,-117.913902 L103.655106,-115.391113 L89.2885132,-106.663506 L84.1538544,-92.2853088 L83.1612549,-63.1343536 L71.5614014,-39.1680641 L60.6158142,-35.6368713 L31.5505028,-35.5429993 L-19.1621246,-36.8408775 L-95.0001068,-41.5186462" stroke="grey" fill="none" stroke-width="3" stroke-opacity="0.8" />
<path d="M-234.579346,61.3806229 L-239.13118,56.1285896 L-244.146347,49.3609085" stroke="grey" fill="none" stroke-width="3" stroke-opacity="0.8" />
<path d="M-27.2676182,-37.1688728 L-31.635416,-31.3689442 L-35.0347099,-37.7038116" stroke="grey" fill="none" stroke-width="3" stroke-opacity="0.8" />
<path d="M-197.309143,122.860733 L-207.648865,149.131012 L-214.607056,169.97287 L-219.190231,193.532425 L-219.490356,209.700439 L-213.42421,227.415558 L-200.434296,244.014435 L-173.33931,251.708801 L-147.49559,244.504486 L-130.164612,229.474594 L-124.863625,208.674683" stroke="grey" fill="none" stroke-width="3" stroke-opacity="0.8" />
<path d="M-166.283508,-231.056274 L-153.345551,-206.893158" stroke="grey" fill="none" stroke-width="3" stroke-opacity="0.8" />
<path d="M179.670441,24.0105839 L180.087158,33.1615829 L182.201508,43.5025177 L181.969528,52.5791664 L177.573975,64.3185196 L167.685226,74.6381073 L153.979065,78.3539658 L141.592697,76.8672485 L128.613693,69.4014282 L119.66243,55.9008484" stroke="grey" fill="none" stroke-width="3" stroke-opacity="0.8" />
<path d="M-180.027359,37.0578384 L-180.930405,52.3369598 L-185.42128,73.4417267 L-190.040344,87.367363 L-195.888977,105.862885 L-205.265518,130.067413 L-213.794632,158.725449 L-221.739594,186.793564 L-221.769989,213.032211 L-213.444489,233.035919 L-200.422699,246.512756 L-180.123749,253.736969 L-157.331009,250.685608 L-136.532257,239.983826 L-124.678741,223.900635 L-121.108467,196.60527 L-125.925446,179.015121 L-145.676315,151.955795 L-169.864014,126.030396 L-184.646179,113.37561 L-195.968094,105.810333 L-211.676834,91.7998505 L-232.703461,70.0248871 L-253.113266,42.0686684 L-264.130371,18.2176208 L-265.678925,-7.20732975 L-255.970261,-30.4222336 L-232.538849,-54.9525223 L-202.390625,-81.974968 L-189.800476,-91.5625687 L-173.882141,-103.135651 L-153.183762,-115.5448 L-116.000389,-141.964432" stroke="grey" fill="none" stroke-width="3" stroke-opacity="0.8" />
<path d="M142.81218,25.0427227 L140.462173,22.5891838 L139.321945,20.4627514 L137.537628,18.7455311 L135.621216,15.7248554 L132.15567,11.5433731 L130.91185,9.77388763 L128.744736,9.05151081 L127.27887,9.57719612 L126.883514,11.2571087 L127.031372,14.6484814 L126.47097,20.4824028 L126.50946,28.6805401 L125.890602,33.0153389 L125.966446,39.027298 L126.33564,42.383873 L126.522293,43.9974327 L127.553818,45.1803513" stroke="grey" fill="none" stroke-width="3" stroke-opacity="0.8" />
<path d="M99.3818359,36.6596489 L99.5913467,53.3712578 L103.451088,66.7698669 L112.450058,77.064476 L124.551186,85.7617722" stroke="grey" fill="none" stroke-width="3" stroke-opacity="0.8" />
<path d="M130.550247,-140.452454 L131.060287,-130.768188 L131.485718,-124.377815 L131.5112,-121.726524 L131.788651,-120.370544 L132.467407,-119.223785 L133.38446,-118.419373 L134.838623,-117.539185 L136.360474,-117.2938 L138.764893,-117.317551" stroke="grey" fill="none" stroke-width="3" stroke-opacity="0.8" />
<path d="M-145.659943,152.206772 L-142.988892,173.362595" stroke="grey" fill="none" stroke-width="3" stroke-opacity="0.8" />
<path d="M-187.00885,113.228157 L-173.571396,127.561653 L-152.319565,151.73645 L-138.285217,169.632126 L-128.070587,182.62529 L-124.376404,197.56575 L-125.431343,212.761261" stroke="grey" fill="none" stroke-width="3" stroke-opacity="0.8" />
<path d="M-21.2897205,-205.393265 L-13.811698,-205.343353 L7.09873009,-204.186295 L24.795372,-202.896469 L34.1308746,-201.75708 L46.2641373,-198.844482" stroke="grey" fill="none" stroke-width="3" stroke-opacity="0.8" />
<path d="M-100.831551,-102.179169 L-98.965744,-111.973015 L-91.4343262,-117.782669 L-78.2127075,-121.146164 L-68.339859,-127.970116 L-57.0456009,-140.918732 L-43.9418869,-162.448227 L-30.3590431,-194.136719 L-19.5710297,-219.843384 L-8.92690468,-247.39621 L2.89565277,-279.922272 L6.45537376,-298.772736 L-3.73348236,-311.150116" stroke="grey" fill="none" stroke-width="3" stroke-opacity="0.8" />
<path d="M-92.1831589,-163.441284 L-96.1193848,-156.877975 L-98.7403412,-151.865326 L-100.809387,-145.702957 L-100.443993,-138.243652 L-99.5843353,-129.262802 L-98.9887085,-125.792595 L-98.412323,-124.256729 L-97.0826569,-123.20919 L-95.6870804,-122.584938 L-93.6513824,-122.335945" stroke="grey" fill="none" stroke-width="3" stroke-opacity="0.8" />
<path d="M41.0118179,-35.691452 L25.3405037,-35.4194565 L11.4021454,-35.2655716 L-7.10688114,-35.7684517" stroke="grey" fill="none" stroke-width="3" stroke-opacity="0.8" />
<path d="M127.014381,45.1728325 L129.184692,43.0274277 L131.94101,39.4966736 L133.447754,37.3945999 L136.825668,34.0032539 L140.025742,30.341713 L142.093384,28.2228279 L142.427017,26.7410336 L142.414261,25.1428738 L141.691849,23.5953941" stroke="grey" fill="none" stroke-width="3" stroke-opacity="0.8" />
<path d="M-116.280212,-215.284103 L-109.782097,-213.610199 L-103.541771,-211.674484 L-95.9057541,-208.755722 L-91.5704117,-207.325958 L-86.8691254,-207.621765 L-83.7898102,-209.447144 L-82.220665,-212.686813 L-81.7119675,-218.356537 L-82.6795807,-223.980209 L-83.5280914,-228.787369 L-86.2915268,-235.670197 L-90.0888748,-241.123138 L-95.3378677,-246.412796 L-101.620628,-251.911652 L-109.714325,-256.711517 L-117.421677,-258.077454 L-122.57618,-258.527527 L-128.387634,-258.282623 L-134.950302,-256.837738 L-139.859146,-253.66394 L-142.331085,-251.924927" stroke="grey" fill="none" stroke-width="3" stroke-opacity="0.8" />
<path d="M171.230972,-5.60949183 L172.597473,-1.13026857 L172.341568,2.34315681 L169.941864,5.77023172 L166.458649,7.67374134" stroke="grey" fill="none" stroke-width="3" stroke-opacity="0.8" />
<path d="M110.352669,36.6999283 L109.568481,33.0424538 L108.000641,29.2600765 L103.22905,27.1742935 L89.6028824,25.4807758" stroke="grey" fill="none" stroke-width="3" stroke-opacity="0.8" />
<path d="M-99.8027878,-27.0521374 L-99.1950684,-52.2478943 L-100.079842,-87.3669281 L-102.485367,-118.388962 L-105.508492,-145.99855 L-99.4734192,-175.551849 L-106.738396,-190.202454 L-123.849281,-198.739273 L-146.403122,-203.734894 L-161.125076,-199.349762 L-170.548096,-190.176819 L-176.713898,-178.459061" stroke="grey" fill="none" stroke-width="3" stroke-opacity="0.8" />
<path d="M-182.771545,108.353958 L-206.438217,91.4486618 L-212.625504,85.1260223" stroke="grey" fill="none" stroke-width="3" stroke-opacity="0.8" />
<path d="M82.4668732,-49.2184753 L78.8362885,-43.6296959 L75.8990784,-38.5367203 L72.477562,-34.5063019 L68.6654739,-32.8225327 L67.1475601,-32.3727112 L66.0133896,-31.3625622 L65.5216446,-30.0168152 L65.4262238,-27.2867546 L65.6239395,-22.8552685 L65.9704895,-13.0388365 L66.1044388,-6.13106155 L66.51754,0.806464791 L67.5790863,7.73216963 L68.5435028,12.9900932 L69.3369293,16.3675823 L70.3013916,18.057827 L73.2866745,19.957119 L76.7077026,20.9374313 L80.3340607,21.1866608 L88.6307755,21.734642 L93.4549408,21.8883801 L98.2098923,22.2422848 L101.395477,22.3544102 L103.451294,22.2618256 L104.902977,22.0711231 L106.06485,21.2714558 L106.372978,20.3063545 L106.316093,19.6948414 L105.934616,18.3787098 L105.919388,17.1245899" stroke="grey" fill="none" stroke-width="3" stroke-opacity="0.8" />
<path d="M28.8872471,-132.228745 L44.3989449,-127.20462 L62.3127708,-127.766762" stroke="grey" fill="none" stroke-width="3" stroke-opacity="0.8" />
<path d="M-203.112778,86.4934845 L-217.240448,72.7548752 L-228.96347,59.6577415 L-234.351089,52.5933304" stroke="grey" fill="none" stroke-width="3" stroke-opacity="0.8" />
<path d="M-258.422485,-24.653019 L-249.462021,-41.5187492 L-236.3573,-59.2398071 L-215.248398,-77.9873886 L-188.919586,-95.6793365" stroke="grey" fill="none" stroke-width="3" stroke-opacity="0.8" />
<path d="M184.586151,10.9391708 L184.570557,28.4612446 L187.441071,42.4490051 L187.412018,53.1303825 L185.010223,61.8021545 L178.584671,70.8970108 L165.41275,78.8998566 L146.84346,80.7058411" stroke="grey" fill="none" stroke-width="3" stroke-opacity="0.8" />
<path d="M-224.744934,72.8052368 L-208.051147,89.6121063 L-202.196899,95.1469269" stroke="grey" fill="none" stroke-width="3" stroke-opacity="0.8" />
<path d="M-94.538208,-122.319389 L-89.5558853,-122.828072 L-84.5858536,-123.767563 L-81.1771393,-124.568649 L-76.3137817,-127.240189 L-70.2485886,-132.205673 L-66.1515427,-135.774094 L-60.5547829,-142.517227 L-56.144207,-149.104675 L-52.2616615,-155.355804 L-48.5358467,-162.756561 L-46.1725578,-168.454208 L-43.2259407,-174.850571 L-40.1280251,-181.160263 L-37.9750519,-186.388992 L-34.5412064,-194.417694 L-30.3800545,-204.27182 L-25.7855835,-216.257553 L-20.9245262,-229.380524 L-16.7950191,-240.200134 L-12.9102268,-249.329132 L-9.14169979,-259.576721 L-3.91347885,-273.597229 L-0.110331655,-283.351837 L2.44166851,-294.950256 L-0.490103483,-302.009949 L-7.36538076,-308.934479" stroke="grey" fill="none" stroke-width="3" stroke-opacity="0.8" />
<path d="M156.116547,26.9166794 L158.477936,30.0298233 L163.011292,35.9990997 L165.778641,40.2467422 L168.0952,42.4192543 L169.815964,42.9787598 L170.931274,43.4159698 L172.225235,43.1743736 L172.526443,41.9651718 L172.45784,40.1707764 L173.291397,37.0402298 L172.830093,33.0629425 L173.410263,29.6209965 L173.11409,26.6843224 L173.228638,24.329319 L174.075745,22.1103992 L174.293091,18.3016453 L174.090729,14.947382 L173.42775,13.0440693 L173.767212,10.3794098 L174.155563,8.75043869 L174.455994,4.89659309" stroke="grey" fill="none" stroke-width="3" stroke-opacity="0.8" />
<path d="M-169.959091,-44.1333809 L-170.243759,-74.9991226 L-170.26767,-84.5534668" stroke="grey" fill="none" stroke-width="3" stroke-opacity="0.8" />
<path d="M130.981491,58.0904999 L131.905945,60.3678513 L133.626175,61.0883255 L135.845093,62.3379707 L137.336334,63.9841156 L140.257797,65.3718491 L141.573181,66.4630127 L143.537643,66.7732697 L145.551956,67.3166428 L149.465012,67.4240036 L155.168457,67.2608032 L159.031921,65.6062775 L161.772247,64.9551392 L164.344482,62.8615913 L167.003723,59.7591972 L166.635864,57.090992 L165.030182,54.5554237 L161.049683,49.6705399 L156.062241,43.2042999 L154.546982,40.2774391 L151.911896,37.6957703 L150.855499,36.3235741 L149.340912,35.8968353 L148.245224,36.2782669 L146.893234,37.5810852 L145.291245,39.1807594 L143.394592,42.4979057 L141.55687,45.1617775 L140.945953,47.0489578 L137.917801,52.090004 L135.600754,54.3695221 L134.061829,55.3239212 L133.21405,56.8246384 L132.083405,58.3013268" stroke="grey" fill="none" stroke-width="3" stroke-opacity="0.8" />
<path d="M70.6648102,47.1581497 L68.2221603,48.9825325 L63.9808693,52.943531 L60.6865082,58.4413757 L58.5539093,63.1155815 L55.9218941,66.2985992 L52.4639397,69.5050659 L47.4945335,73.0820007 L41.8055153,77.3214111 L36.6067543,81.1918869 L28.7749386,86.7531128 L20.9994316,92.6479721 L16.9809837,96.7447357 L11.4032288,99.2562332 L3.80325699,101.267609 L-4.78402805,102.771126 L-8.48539734,102.958633" stroke="grey" fill="none" stroke-width="3" stroke-opacity="0.8" />
<path d="M-33.3920898,1.62515402 L-32.9113007,-19.4590626" stroke="grey" fill="none" stroke-width="3" stroke-opacity="0.8" />
<path d="M165.612579,-5.6817317 L162.592224,-7.53110647 L159.932007,-9.46874714 L156.608643,-10.6764793 L154.873169,-10.2910061 L152.418854,-10.533946 L149.966492,-11.072135 L147.336548,-10.4679422 L141.335876,-9.37039566 L138.966049,-7.96023417 L136.411652,-5.66976404 L135.681122,-4.07698727 L136.223053,-2.44396114 L138.301102,1.49743223 L141.502731,5.9708147 L144.916367,10.9577141 L147.582428,14.4649487 L148.899689,15.1888428 L150.555832,14.9067287 L151.766464,14.1169167" stroke="grey" fill="none" stroke-width="3" stroke-opacity="0.8" />
<path d="M-11.8035736,103.64167 L-19.2571716,104.164406 L-25.2394638,104.292519 L-31.9924889,103.866493 L-35.5668182,102.299232 L-40.1533661,99.2307129 L-43.3470345,97.3380051 L-47.9979515,96.1038437 L-51.2945137,96.0414886 L-57.2286682,96.2432327" stroke="grey" fill="none" stroke-width="3" stroke-opacity="0.8" />
<path d="M-214.462997,148.164597 L-217.4328,158.340912 L-219.826965,165.894974" stroke="grey" fill="none" stroke-width="3" stroke-opacity="0.8" />
<path d="M-152.187332,-240.361176 L-153.106049,-238.689911 L-154.650894,-233.991898 L-156.200226,-230.885605 L-155.96759,-229.563675 L-154.249969,-228.234451 L-150.235901,-226.460281 L-143.824265,-224.091599 L-139.905716,-223.147888 L-133.347122,-221.65506 L-131.260025,-220.835876" stroke="grey" fill="none" stroke-width="3" stroke-opacity="0.8" />
<path d="M149.250473,-155.898987 L149.047791,-150.609818 L148.943573,-123.261375 L146.910355,-118.332336 L149.210388,-113.388046 L148.574097,-102.309769 L149.18483,-85.3668747 L151.446991,-83.1320419 L153.155548,-80.813858 L152.253494,-75.4578094" stroke="grey" fill="none" stroke-width="3" stroke-opacity="0.8" />
<path d="M-70.7392578,-40.3448639 L-76.4201202,-40.6600037 L-81.1843414,-40.2511597 L-83.4716263,-39.3915482 L-85.2790146,-37.9374161 L-86.3498764,-35.6953125 L-86.5972595,-32.8785248" stroke="grey" fill="none" stroke-width="3" stroke-opacity="0.8" />
<path d="M161.278076,84.1931076 L150.32695,84.286911 L142.654236,84.0256882 L135.360352,83.214592 L126.663574,80.7719498 L119.380486,75.8001556 L108.974144,65.2648773 L106.171753,51.118103 L105.670799,40.8300247 L106.672211,34.7611313 L105.502647,31.3939743 L103.275368,30.0497284 L100.879471,29.6775856" stroke="grey" fill="none" stroke-width="3" stroke-opacity="0.8" />
<path d="M-110.1661,-155.982605 L-109.652534,-159.530746 L-110.277023,-168.473984 L-110.753128,-176.174942 L-112.465881,-180.399734 L-118.20842,-183.636475 L-125.528046,-185.999619 L-134.912262,-188.050064 L-144.507553,-190.154663 L-152.522171,-190.394272 L-160.847443,-187.746658 L-167.966492,-183.2211 L-170.947983,-178.8582 L-171.34552,-173.137314 L-170.871811,-164.996338 L-170.018997,-154.891708 L-169.352997,-145.516815 L-168.580734,-136.239319 L-167.895279,-127.774467 L-167.622284,-122.626534 L-167.449112,-118.585587 L-166.862015,-112.61911 L-165.571838,-106.956413 L-165.231705,-103.431953 L-165.196808,-101.802292" stroke="grey" fill="none" stroke-width="3" stroke-opacity="0.8" />
<path d="M-96.9125977,-157.77272 L-81.2771149,-169.034607 L-72.7181778,-180.828171 L-68.3940125,-194.979187 L-65.8395157,-212.607788 L-67.0572586,-228.1465 L-73.3503952,-243.275406 L-88.5058289,-262.077484 L-105.309502,-273.242676 L-123.867241,-274.91095 L-149.283127,-270.276367 L-165.699265,-260.627991" stroke="grey" fill="none" stroke-width="3" stroke-opacity="0.8" />
<path d="M120.90844,29.5944786 L121.495979,47.8357391 L124.775551,59.4179916 L134.686005,68.5331726 L148.282715,73.1662292 L163.242172,70.3540039 L173.21994,60.0317764 L177.23056,44.757061 L178.53949,25.9274235" stroke="grey" fill="none" stroke-width="3" stroke-opacity="0.8" />
<path d="M-161.047836,-114.352562 L-140.901138,-127.492096 L-106.341621,-153.851883" stroke="grey" fill="none" stroke-width="3" stroke-opacity="0.8" />
<path d="M116.87368,-121.102318 L118.091652,-120.513405 L121.844269,-120.502151 L125.301994,-120.603149 L127.658821,-121.553474 L128.62204,-123.038078 L128.608292,-125.020958 L128.406815,-128.551178" stroke="grey" fill="none" stroke-width="3" stroke-opacity="0.8" />
<path d="M-275.089966,9.4863739 L-272.144196,27.7524681 L-264.039825,45.8167267 L-254.053955,58.6657104 L-243.969086,70.249733" stroke="grey" fill="none" stroke-width="3" stroke-opacity="0.8" />
<path d="M64.7110901,-83.8617249 L67.9176102,-83.4445877 L72.3327332,-83.2522507 L75.1048203,-83.3719788 L78.0481415,-83.3073807 L79.510498,-83.5943527 L80.1907654,-84.1032333 L80.5441818,-84.8466873 L80.7521744,-86.0634003" stroke="grey" fill="none" stroke-width="3" stroke-opacity="0.8" />
<path d="M-57.5916939,93.3047409 L-52.5407333,93.1961594 L-47.9134598,93.3314743 L-41.9260597,94.5084991 L-34.3639984,99.2804565 L-30.8285065,100.960617 L-21.677639,101.148193 L-10.7067394,100.296158 L-1.39720821,98.3409271 L3.0205853,97.8744354 L9.6068306,96.522644 L14.6130981,94.1098022 L23.2483826,86.7170563 L29.8077221,81.6540909" stroke="grey" fill="none" stroke-width="3" stroke-opacity="0.8" />
<path d="M63.8778839,-39.7627983 L65.8983383,-41.14077 L67.3982391,-42.4756432 L68.4368057,-44.2271309" stroke="grey" fill="none" stroke-width="3" stroke-opacity="0.8" />
<path d="M-53.5602875,-43.7785339 L-51.7210732,-42.2411652 L-49.8528519,-42.0877495 L-42.8522911,-41.4089203 L-35.750824,-40.8614388 L-28.5627899,-40.8120842 L-21.3924446,-40.4737473 L-13.7445183,-40.1725044 L-8.10273266,-39.5046997 L-6.0340147,-39.3135338 L-1.08677864,-39.7836609 L4.42175198,-39.3131638 L11.6518393,-39.5669518 L17.6515331,-39.1519127 L26.2418823,-38.7774162" stroke="grey" fill="none" stroke-width="3" stroke-opacity="0.8" />
<path d="M64.5653305,-38.9450722 L65.7892914,-39.0731544 L67.6700287,-39.8249664 L70.2145844,-42.0384254 L72.5631409,-46.5369148 L74.3417587,-50.0267525 L76.4768143,-53.6723366" stroke="grey" fill="none" stroke-width="3" stroke-opacity="0.8" />
<path d="M115.919968,28.116909 L115.956245,7.58106041 L124.810287,-10.7953186 L139.603256,-17.7260094 L159.639481,-19.1373444 L175.005798,-10.049861 L184.007339,3.51332045 L183.121094,31.3294487 L182.878937,48.7728844 L175.602966,66.5412369 L160.653992,75.0662231 L140.599197,75.1799469 L121.633377,65.8208618 L115.737183,45.6857147 L115.864159,27.7080326" stroke="grey" fill="none" stroke-width="3" stroke-opacity="0.8" />
<path d="M99.2155685,-7.26024628 L100.724792,-5.20742798 L100.91127,-0.221879959 L99.5622177,4.6454258 L99.1243896,11.2091398 L99.7519913,17.738184" stroke="grey" fill="none" stroke-width="3" stroke-opacity="0.8" />
<path d="M67.0916977,24.5970058 L63.6752701,20.634903 L61.6774788,15.7824125 L60.5545273,9.22972965 L59.6625137,0.795963287 L58.9996643,-5.90984631 L58.9851761,-22.7483425 L58.737999,-26.8628998 L58.4678421,-29.2921677 L57.7316742,-30.7757759 L56.3814926,-31.7396755 L54.5633278,-31.9896336" stroke="grey" fill="none" stroke-width="3" stroke-opacity="0.8" />
<path d="M-169.316788,-82.311882 L-170.641632,-101.017799" stroke="grey" fill="none" stroke-width="3" stroke-opacity="0.8" />
<path d="M173.071274,-154.656006 L178.016632,-155.483139 L183.34964,-156.934387 L187.500214,-157.655334 L191.624084,-157.260132 L195.943039,-156.321579 L197.987595,-155.177841 L199.730759,-153.632767 L200.538254,-152.312943 L201.050491,-150.86499 L201.272034,-149.586716 L200.968735,-147.183914 L200.14859,-144.512695 L199.829437,-142.704514 L199.966812,-141.317352 L201.183578,-139.213669 L202.917282,-137.878906" stroke="grey" fill="none" stroke-width="3" stroke-opacity="0.8" />
<path d="M-169.940262,24.5930557 L-168.488647,7.88887787 L-168.540985,-6.02817345 L-165.078964,-35.4606361 L-164.286774,-43.5861053" stroke="grey" fill="none" stroke-width="3" stroke-opacity="0.8" />
<path d="M-230.775238,-45.3298988 L-218.561523,-56.5385895 L-203.251892,-69.7969894 L-192.754028,-77.6778564 L-185.33255,-82.980896" stroke="grey" fill="none" stroke-width="3" stroke-opacity="0.8" />
<path d="M-206.218994,141.760315 L-197.811996,118.451912" stroke="grey" fill="none" stroke-width="3" stroke-opacity="0.8" />
<path d="M-176.783295,37.5116692 L-177.475739,48.8120575 L-181.907776,70.0512085 L-190.6492,95.2819595" stroke="grey" fill="none" stroke-width="3" stroke-opacity="0.8" />
<path d="M-123.660561,228.234756 L-130.631744,238.897522 L-143.708267,247.789978 L-158.953384,254.136063 L-176.943039,256.677521 L-197.958313,250.049911 L-209.570175,241.924561 L-218.244095,228.242279 L-223.393875,214.855865 L-224.413162,193.372314 L-216.775467,169.262863" stroke="grey" fill="none" stroke-width="3" stroke-opacity="0.8" />
<path d="M175.805267,-11.1439953 L167.045319,3.78238487 L153.050797,20.3635445 L145.400253,32.2294731 L130.421448,49.9009094 L119.885002,62.0582924" stroke="grey" fill="none" stroke-width="3" stroke-opacity="0.8" />
<path d="M57.92453,-5.82001829 L58.0070496,-8.77064228 L57.7636414,-12.1031141 L57.6366882,-18.7843056 L57.4497299,-21.9312611 L57.318676,-25.8225689 L57.4640274,-27.8886185" stroke="grey" fill="none" stroke-width="3" stroke-opacity="0.8" />
<path d="M166.151962,-4.91013002 L164.598328,-0.216684341 L163.162537,4.15926981" stroke="grey" fill="none" stroke-width="3" stroke-opacity="0.8" />
<path d="M-221.885025,-80.4090805 L-234.970078,-68.5587463 L-246.84964,-55.6771889 L-254.461533,-49.7367973" stroke="grey" fill="none" stroke-width="3" stroke-opacity="0.8" />
<path d="M28.4182091,82.4769135 L40.1385689,73.7894135 L51.9203491,65.5999908 L55.3066444,62.2178459 L57.8122864,56.9224548 L61.9931641,50.153656 L67.9518814,45.1839371 L75.2643814,39.8418922 L77.6433945,36.7663918 L78.6680222,33.0303917 L79.1058426,28.9250298 L77.3664169,27.2285404 L73.6240921,27.6382904 L70.8089447,26.4787521 L67.120903,24.1385326" stroke="grey" fill="none" stroke-width="3" stroke-opacity="0.8" />
<path d="M-107.577141,-135.189987 L-103.546577,-152.161331 L-91.7198105,-170.592682 L-79.6776962,-185.47229 L-73.1083755,-212.622192 L-82.0193863,-242.413544 L-104.62088,-264.368774 L-131.282898,-267.278625 L-151.713074,-261.379608 L-165.623428,-249.855896" stroke="grey" fill="none" stroke-width="3" stroke-opacity="0.8" />
<path d="M-95.8706512,-174.353958 L-93.7973099,-182.022339 L-95.7142792,-191.03096 L-107.190552,-202.938522 L-126.078506,-212.966263 L-145.960175,-219.028763 L-157.279633,-216.785004 L-165.793732,-208.264832 L-172.759598,-193.223587" stroke="grey" fill="none" stroke-width="3" stroke-opacity="0.8" />
<path d="M53.9588432,-30.7787571 L49.1854019,-30.2942982 L44.9037018,-29.9368515" stroke="grey" fill="none" stroke-width="3" stroke-opacity="0.8" />
<path d="M102.521561,-111.776344 L99.1201553,-110.516731 L94.748703,-107.724525 L90.5266266,-102.555115 L88.1408234,-95.276207 L88.2199631,-85.9516983 L87.5652237,-81.5782471 L87.0968933,-77.6832047 L86.8892822,-70.5862503 L86.5236664,-64.1523285 L84.8394089,-56.5402145" stroke="grey" fill="none" stroke-width="3" stroke-opacity="0.8" />
<path d="M-32.4266243,-134.697235 L-33.2963486,-133.397324 L-32.893158,-129.97403 L-33.3432426,-126.430252 L-33.5580177,-122.903847 L-33.8807945,-120.515411 L-35.3801956,-118.386429 L-37.3746147,-117.601341 L-40.8339539,-117.458145 L-43.6746216,-117.693542 L-46.828968,-116.965187 L-51.2778244,-116.971497 L-54.4672203,-117.795624 L-55.9048615,-118.03331" stroke="grey" fill="none" stroke-width="3" stroke-opacity="0.8" />
<path d="M185.196335,15.051239 L184.286362,2.9515934 L179.896667,-7.75782633 L170.852036,-16.1400185 L157.547638,-21.1589642 L134.720795,-19.5865803 L116.868866,-1.9762013 L115.303146,26.4359398" stroke="grey" fill="none" stroke-width="3" stroke-opacity="0.8" />
<path d="M-4.90836811,-139.200424 L1.59462428,-139.105316 L13.3482132,-140.116547 L27.445755,-144.299576 L41.3152771,-139.475418 L45.1197662,-129.036652 L39.3936462,-117.73262 L22.8642063,-113.343452 L9.53733158,-118.83902 L-6.66957664,-136.12352" stroke="grey" fill="none" stroke-width="3" stroke-opacity="0.8" />
<path d="M-124.644714,-135.740677 L-140.02269,-124.537056 L-147.525604,-120.109985" stroke="grey" fill="none" stroke-width="3" stroke-opacity="0.8" />
<path d="M-102.829132,-52.4544296 L-103.325806,-55.100029 L-103.174789,-61.7267761 L-103.417816,-70.5172501 L-103.949211,-80.4902115 L-104.212242,-91.2305145 L-105.520798,-104.363892 L-106.645233,-112.432884 L-107.548172,-120.913376 L-108.052788,-126.461838 L-110.009361,-133.559784 L-110.996536,-136.655823 L-111.662788,-140.774765 L-111.337296,-149.447052 L-109.6315,-158.094879" stroke="grey" fill="none" stroke-width="3" stroke-opacity="0.8" />
<path d="M66.7404709,-36.0731049 L71.2935257,-36.9908295 L74.4048996,-40.0774536 L76.6318817,-45.4009247 L81.5576935,-55.5564919 L83.2163544,-61.3624458" stroke="grey" fill="none" stroke-width="3" stroke-opacity="0.8" />
<path d="M-12.6686668,-139.306808 L-0.821222305,-134.908173 L12.5462894,-117.568115" stroke="grey" fill="none" stroke-width="3" stroke-opacity="0.8" />
<path d="M-160.804718,-116.616249 L-172.286469,-109.671082 L-192.661682,-93.3182831" stroke="grey" fill="none" stroke-width="3" stroke-opacity="0.8" />
<path d="M-37.7870255,-32.9918289 L-38.9067726,-34.104229 L-40.7061119,-34.5735092 L-44.770359,-34.9259262 L-52.4234619,-35.65411 L-59.4154968,-35.9915771 L-67.3005524,-36.7538147 L-75.4056702,-37.0264397 L-79.8656616,-37.3907166 L-81.6562576,-36.8996658 L-82.9897385,-35.8702087 L-83.7152023,-34.3051224 L-83.8158188,-32.7022858 L-84.2207184,-27.2989998 L-84.4566345,-21.820816" stroke="grey" fill="none" stroke-width="3" stroke-opacity="0.8" />
<path d="M-187.871948,-132.874146 L-186.631836,-123.045509 L-186.584106,-109.664886 L-193.242432,-101.762062 L-203.059311,-97.1477356 L-213.016525,-90.7566299 L-222.666946,-82.2124863" stroke="grey" fill="none" stroke-width="3" stroke-opacity="0.8" />
<path d="M-32.7189255,-16.3975792 L-33.2660065,-2.47652149" stroke="grey" fill="none" stroke-width="3" stroke-opacity="0.8" />
<path d="M-182.141037,-250.29364 L-187.215179,-241.894073 L-190.843903,-230.088181 L-191.798141,-209.754852 L-190.636459,-189.944839" stroke="grey" fill="none" stroke-width="3" stroke-opacity="0.8" />
<path d="M-75.5401611,-208.866196 L-85.7476044,-201.133621 L-116.866913,-199.113678" stroke="grey" fill="none" stroke-width="3" stroke-opacity="0.8" />
<path d="M174.425308,5.45004654 L172.465118,6.73917961 L171.68988,8.10304546 L169.378311,9.34775352 L167.768127,10.4709387 L166.460587,12.6044407 L163.105804,16.8531227 L160.420334,19.7113972 L158.488571,22.9450798 L156.780884,25.2839146 L156.857666,27.3395653" stroke="grey" fill="none" stroke-width="3" stroke-opacity="0.8" />
<path d="M158.061676,33.5684166 L154.001633,28.5106773 L152.900497,24.4127865 L153.648132,21.2623024 L155.714066,18.2757263" stroke="grey" fill="none" stroke-width="3" stroke-opacity="0.8" />
<path d="M-143.256927,-125.51503 L-130.359207,-131.402985 L-116.581276,-140.490814" stroke="grey" fill="none" stroke-width="3" stroke-opacity="0.8" />
<path d="M60.6948433,-80.2985306 L84.1202087,-80.3524551" stroke="grey" fill="none" stroke-width="3" stroke-opacity="0.8" />
<path d="M-38.5026436,-165.280212 L-36.2135658,-165.865829 L-34.6506004,-165.892075" stroke="grey" fill="none" stroke-width="3" stroke-opacity="0.8" />
<path d="M80.4879074,-80.3674774 L62.9829063,-80.5552292" stroke="grey" fill="none" stroke-width="3" stroke-opacity="0.8" />
<path d="M-185.552124,-28.3694267 L-187.421677,6.0229969 L-189.547424,25.2308788 L-191.118179,45.7475395 L-195.82019,71.6426849" stroke="grey" fill="none" stroke-width="3" stroke-opacity="0.8" />
<path d="M-199.534119,124.703171 L-186.282867,89.0526123" stroke="grey" fill="none" stroke-width="3" stroke-opacity="0.8" />
<path d="M62.7233086,-6.93858147 L62.3878021,-19.4132805 L62.3796997,-27.886879 L63.3545761,-31.8477554 L64.9790268,-34.4218292 L66.7717743,-35.9730949" stroke="grey" fill="none" stroke-width="3" stroke-opacity="0.8" />
<path d="M189.028809,46.1408195 L189.052917,25.4474182 L188.865799,4.64686966 L184.275482,-9.85095215 L174.509689,-18.5058975 L166.411362,-21.9042416 L153.159363,-23.7794456 L143.811768,-23.7141647" stroke="grey" fill="none" stroke-width="3" stroke-opacity="0.8" />
<path d="M-94.7240524,-144.694595 L-84.2219467,-152.253448 L-71.9210587,-164.200073 L-65.5157089,-173.488693" stroke="grey" fill="none" stroke-width="3" stroke-opacity="0.8" />
<path d="M-174.63652,-43.7966537 L-176.303131,-7.58501482 L-180.253693,37.137085" stroke="grey" fill="none" stroke-width="3" stroke-opacity="0.8" />
<path d="M-182.360306,-185.340286 L-180.713257,-150.221924 L-178.488647,-128.882614 L-177.854324,-120.053314" stroke="grey" fill="none" stroke-width="3" stroke-opacity="0.8" />
<path d="M147.454056,21.3664341 L144.866714,18.4885406 L142.141983,15.3539839" stroke="grey" fill="none" stroke-width="3" stroke-opacity="0.8" />
<path d="M-157.529007,-108.743607 L-133.87265,-123.793289 L-114.489655,-138.286896 L-107.815033,-142.834244" stroke="grey" fill="none" stroke-width="3" stroke-opacity="0.8" />
<path d="M-126.795113,37.9016609 L-126.924706,31.6022606 L-126.973045,23.8929672 L-127.114334,16.2356834 L-126.80687,8.3302393 L-126.996979,4.42127466 L-126.805618,-2.39087033 L-126.723099,-8.28194046 L-126.388367,-9.75326347 L-125.917099,-10.4056635 L-124.333466,-12.1392269 L-122.644409,-14.0097656 L-120.920586,-15.4524174 L-119.186127,-15.899169 L-115.861877,-15.9484501 L-113.543427,-15.9110909 L-109.758842,-15.8199997 L-104.239937,-15.8687153 L-97.9928513,-15.9124603 L-92.0526886,-15.887043" stroke="grey" fill="none" stroke-width="3" stroke-opacity="0.8" />
<path d="M-189.42746,-184.309982 L-188.340225,-163.359528 L-186.764709,-148.168594 L-185.970978,-134.096497" stroke="grey" fill="none" stroke-width="3" stroke-opacity="0.8" />
<path d="M-167.399246,-45.1238022 L-167.083954,-43.2737427 L-167.636749,-38.4333839 L-168.447586,-32.9321136 L-169.061035,-26.164444 L-169.958694,-19.1087513 L-170.895081,-10.6347342 L-171.603729,-1.53462648 L-172.585953,9.27147961 L-172.997772,17.2976131 L-173.365753,25.4707069 L-173.560349,33.4620094 L-173.898743,38.7877693" stroke="grey" fill="none" stroke-width="3" stroke-opacity="0.8" />
<path d="M-206.643967,142.618774 L-202.98703,129.677185 L-200.249313,122.327766 L-197.23877,115.555283" stroke="grey" fill="none" stroke-width="3" stroke-opacity="0.8" />
<path d="M-29.536335,58.9375 L-21.0093269,59.2013054 L-14.0431337,59.1912994 L-10.1323252,57.2875862 L-7.73951721,53.0573158 L-6.88453484,45.0038452 L-7.12053299,37.5138817 L-7.02190781,23.2652988 L-7.15314102,6.20672512 L-7.33615494,-1.76454735 L-8.10373878,-5.85557127 L-14.1827374,-10.9295387 L-22.0452137,-10.5901852 L-29.3628941,-10.7937775" stroke="grey" fill="none" stroke-width="3" stroke-opacity="0.8" />
<path d="M149.223282,-114.362274 L142.773041,-114.526268 L134.901672,-114.421646 L128.347443,-114.314278 L123.174019,-113.910881 L114.072884,-113.309494 L106.481911,-112.748093 L101.52224,-111.590416" stroke="grey" fill="none" stroke-width="3" stroke-opacity="0.8" />
<path d="M-210.633759,150.641891 L-213.541672,158.771866 L-216.122665,166.82663" stroke="grey" fill="none" stroke-width="3" stroke-opacity="0.8" />
<path d="M-266.600403,14.4412327 L-268.156708,-4.325737 L-262.631073,-20.8786316 L-245.892288,-44.006649 L-216.889771,-72.286377 L-190.954803,-92.4628601" stroke="grey" fill="none" stroke-width="3" stroke-opacity="0.8" />
<path d="M-86.4072418,-40.1397552 L-87.0563049,-22.5667305 L-87.2479095,-18.4806061 L-87.3450699,-15.9442406 L-87.3945465,-10.0142355" stroke="grey" fill="none" stroke-width="3" stroke-opacity="0.8" />
<path d="M-23.1880569,-200.313034 L-24.1037655,-197.600616 L-26.5679951,-191.972549 L-30.1699467,-183.717789 L-34.3165512,-174.553955 L-38.3750916,-165.284363" stroke="grey" fill="none" stroke-width="3" stroke-opacity="0.8" />
<path d="M-164.438156,-41.7933731 L-163.937943,-55.237072 L-164.507355,-76.1651154 L-164.712708,-90.2950668 L-162.380188,-98.3975143 L-153.909943,-103.286613 L-146.555298,-108.050758 L-134.543365,-115.560379 L-126.613197,-122.646515" stroke="grey" fill="none" stroke-width="3" stroke-opacity="0.8" />
<path d="M-216.139023,250.656143 L-224.613541,243.269501 L-230.839813,231.251862 L-233.308105,221.982635 L-236.442871,205.680557" stroke="grey" fill="none" stroke-width="3" stroke-opacity="0.8" />
<path d="M-186.876648,113.671196 L-208.635849,98.0844879 L-216.352448,90.8857803" stroke="grey" fill="none" stroke-width="3" stroke-opacity="0.8" />
<path d="M-177.827209,-51.0907326 L-175.656708,-76.4766846 L-176.340515,-83.2166138" stroke="grey" fill="none" stroke-width="3" stroke-opacity="0.8" />
<path d="M-236.007645,92.313446 L-225.780701,100.135132 L-219.042999,115.157478 L-221.402084,127.454849" stroke="grey" fill="none" stroke-width="3" stroke-opacity="0.8" />
<path d="M85.8706284,25.8784752 L84.056633,26.2262726 L82.3820419,27.1056271 L81.2878189,28.3815041 L80.828949,30.0564175 L80.6311646,32.3072624 L80.592865,34.9963417 L79.2240295,39.2831192 L76.9435272,42.3309135 L73.0685272,45.4059105" stroke="grey" fill="none" stroke-width="3" stroke-opacity="0.8" />
<path d="M-201.872803,137.115982 L-196.246994,122.524643" stroke="grey" fill="none" stroke-width="3" stroke-opacity="0.8" />
<path d="M-79.1867905,-16.1528358 L-77.1803665,-15.7871618 L-75.5066681,-14.8459215 L-74.1714859,-13.5636578 L-72.8942032,-12.3708649 L-71.3342667,-9.96313286 L-71.0732956,-7.56077528 L-70.9287186,-3.52370262 L-70.9880829,1.1629827 L-71.0929184,7.40724754 L-70.9793396,14.2567635 L-71.2373428,19.1882439 L-71.2179108,24.6122398 L-71.1363068,30.3817425 L-71.0081558,37.1652374 L-70.9288788,43.3411369 L-71.1691666,48.938755 L-71.1385117,53.8467674 L-71.0918198,58.114502" stroke="grey" fill="none" stroke-width="3" stroke-opacity="0.8" />
<path d="M28.8597431,-139.018326 L31.0229359,-144.708466 L38.1105652,-147.811417 L45.209343,-143.25444 L44.4713745,-134.686523 L37.9423904,-131.050629 L30.7683144,-132.763702" stroke="grey" fill="none" stroke-width="3" stroke-opacity="0.8" />
<path d="M-183.153275,38.958847 L-177.946564,-6.62229156 L-177.120972,-44.4338379" stroke="grey" fill="none" stroke-width="3" stroke-opacity="0.8" />
<path d="M-17.8142471,-209.209229 L-15.5216961,-208.896408 L-12.7932367,-208.730042 L-11.1841745,-208.113297 L-7.495502,-208.318359 L-4.03107786,-207.670639 L1.76671457,-207.150513 L7.96062183,-206.910004" stroke="grey" fill="none" stroke-width="3" stroke-opacity="0.8" />
<path d="M-242.904205,118.603615 L-245.533234,103.102554 L-243.593323,94.8825378" stroke="grey" fill="none" stroke-width="3" stroke-opacity="0.8" />
<path d="M-160.465668,-255.425446 L-167.48793,-245.332825 L-173.538849,-226.880539 L-173.443802,-209.216248 L-175.437485,-182.724915 L-174.064316,-154.664948 L-171.035751,-121.621071" stroke="grey" fill="none" stroke-width="3" stroke-opacity="0.8" />
<path d="M-194.933395,93.329277 L-188.028839,72.2785492 L-183.476593,47.8781776 L-183.21521,34.8147812" stroke="grey" fill="none" stroke-width="3" stroke-opacity="0.8" />
<path d="M83.9108353,-71.98983 L83.8769684,-74.7546616 L83.1540833,-77.1182022 L82.5090179,-78.3281937 L81.6499329,-79.2371979 L80.6499481,-79.8859482 L79.1055984,-80.3414001 L78.253418,-80.4640961 L74.7861023,-80.3956223" stroke="grey" fill="none" stroke-width="3" stroke-opacity="0.8" />
<path d="M121.242683,-116.999664 L124.718575,-116.970528 L129.163956,-118.126602 L131.406754,-119.506042 L132.744644,-121.19558 L133.025513,-123.526527 L132.749374,-127.256691" stroke="grey" fill="none" stroke-width="3" stroke-opacity="0.8" />
<path d="M-186.578964,-182.411789 L-186.135223,-183.008057 L-184.281326,-183.695496 L-180.323669,-184.042847 L-178.45105,-184.583771 L-177.651764,-186.706497 L-177.656723,-188.947083" stroke="grey" fill="none" stroke-width="3" stroke-opacity="0.8" />
<path d="M-24.2897339,-202.650467 L-16.0310345,-205.329987 L-4.03692436,-204.788849 L10.8534527,-203.913498 L36.2541542,-201.498123 L56.0965538,-197.820847 L88.6501846,-197.296753 L106.50621,-187.671204 L120.439224,-165.278397 L128.437546,-151.815323 L131.248123,-142.605286" stroke="grey" fill="none" stroke-width="3" stroke-opacity="0.8" />
<path d="M-155.516541,123.064392 L-162.59108,116.48024 L-172.431442,108.915627 L-181.50827,100.464722 L-179.654587,88.0344162 L-174.813812,73.6504822" stroke="grey" fill="none" stroke-width="3" stroke-opacity="0.8" />
<path d="M72.2453308,-79.5882645 L77.2782288,-80.0061188 L79.5055847,-80.4842377 L80.8070526,-81.12397 L81.8368301,-81.9894104 L82.7483978,-83.2232666 L83.0953064,-84.9360657 L83.1518097,-87.4124603 L83.4227905,-91.1935577 L84.2381134,-96.9571075 L85.8731232,-102.02475 L87.3636475,-105.15934 L90.596138,-109.69693 L94.5082703,-112.553452 L98.2870026,-114.3703 L103.01606,-116.058983 L106.070267,-116.638229" stroke="grey" fill="none" stroke-width="3" stroke-opacity="0.8" />
<path d="M-173.83699,-102.738388 L-174.960327,-122.896332 L-179.440689,-183.404968" stroke="grey" fill="none" stroke-width="3" stroke-opacity="0.8" />
<path d="M-239.485138,52.8817368 L-244.664978,42.2227287 L-253.441086,22.1689243 L-257.530975,-2.14258862 L-253.701233,-18.2242355 L-244.589111,-33.0118752 L-234.926743,-46.9321175" stroke="grey" fill="none" stroke-width="3" stroke-opacity="0.8" />
<path d="M-212.722336,190.154572 L-212.91684,207.671158 L-208.66188,222.363647 L-200.50528,234.753571 L-186.665222,242.631271 L-169.13002,244.31041 L-150.782547,238.584778 L-136.269623,225.973068 L-131.241943,208.028091 L-131.658615,191.27829 L-143.925674,172.939194" stroke="grey" fill="none" stroke-width="3" stroke-opacity="0.8" />
<path d="M-116.855919,-135.548035 L-132.652374,-125.076088 L-145.638428,-116.412964" stroke="grey" fill="none" stroke-width="3" stroke-opacity="0.8" />
<path d="M-210.953293,95.0951996 L-223.629486,84.9222565 L-232.334991,75.3058319 L-243.564774,61.6332283 L-254.340897,44.7548981 L-262.626587,29.6359901 L-265.808319,7.84077454" stroke="grey" fill="none" stroke-width="3" stroke-opacity="0.8" />
<path d="M81.8000259,24.4798241 L78.6325531,24.5956192 L73.3943634,23.892458 L69.1794281,21.4569778 L66.4152756,17.7742443 L65.7284622,13.8204699 L65.4923325,11.1628351" stroke="grey" fill="none" stroke-width="3" stroke-opacity="0.8" />
<path d="M127.820717,-4.90476704 L127.315125,-0.716945648 L128.098877,4.01679945 L130.932434,7.22290134 L134.303345,8.93423462" stroke="grey" fill="none" stroke-width="3" stroke-opacity="0.8" />
<path d="M54.1697884,-32.0256653 L50.4332237,-31.8343658 L44.1400146,-31.6109867 L39.5043106,-31.8839073 L32.8848076,-32.1392555 L25.2078781,-32.1128654 L18.3514042,-32.4557304 L9.07116127,-32.6708412 L-0.614941597,-32.6881599 L-5.16192389,-32.7466049 L-7.04180193,-32.230957" stroke="grey" fill="none" stroke-width="3" stroke-opacity="0.8" />
<path d="M-188.557846,-87.7656784 L-172.10202,-98.2488098 L-152.865433,-109.435852" stroke="grey" fill="none" stroke-width="3" stroke-opacity="0.8" />
<path d="M-172.83847,-45.8369751 L-173.707077,-70.0040588 L-172.507339,-83.7555313" stroke="grey" fill="none" stroke-width="3" stroke-opacity="0.8" />
<path d="M178.381027,28.8268108 L179.068695,16.4481964 L178.378754,3.74188805 L173.692078,-5.22226524 L165.318283,-12.4136353 L153.8172,-15.858633 L140.60376,-14.7063217 L127.763107,-6.59372997 L121.702301,5.86308956 L120.939941,20.2700367 L121.039467,33.1837387" stroke="grey" fill="none" stroke-width="3" stroke-opacity="0.8" />
<path d="M-212.76622,187.070374 L-212.800873,198.807159 L-211.425369,214.490677 L-202.126785,232.589539 L-183.553604,243.252975 L-160.252167,242.311478 L-140.268478,230.608383 L-131.986572,211.762238 L-131.612885,191.632126 L-145.307693,170.855515" stroke="grey" fill="none" stroke-width="3" stroke-opacity="0.8" />
<path d="M97.0389557,25.0924873 L104.310303,25.5972977 L107.381935,24.6191216 L109.099136,22.2962894 L109.724594,17.9105873" stroke="grey" fill="none" stroke-width="3" stroke-opacity="0.8" />
<path d="M-207.566544,92.4744797 L-220.035156,78.9531097 L-239.717026,55.6271362 L-252.274689,36.5536804 L-258.238037,24.5415058 L-261.284058,12.8845711 L-262.602173,0.134925842 L-259.768555,-15.2627029 L-251.455246,-30.8936462 L-234.470322,-49.1670914 L-217.490448,-65.3600845 L-201.288864,-77.9636536 L-186.635208,-88.2909851" stroke="grey" fill="none" stroke-width="3" stroke-opacity="0.8" />
<path d="M-129.60173,-137.272858 L-141.578812,-128.893448 L-149.944275,-122.242722" stroke="grey" fill="none" stroke-width="3" stroke-opacity="0.8" />
<path d="M193.660934,28.2487202 L193.340408,34.6509018 L193.397247,40.4483376 L193.553619,47.0513039 L193.335587,51.9325943 L192.687134,55.6035919 L191.24675,61.1932449 L189.025146,66.115387 L186.121414,69.9335175 L181.098221,74.4351883 L175.478775,78.5047607 L169.371368,81.1681671 L164.193268,82.7105713 L160.867905,83.3190842" stroke="grey" fill="none" stroke-width="3" stroke-opacity="0.8" />
<path d="M-232.615646,70.0167847 L-247.157318,37.5973129 L-255.119736,16.659338 L-256.829712,-3.44489956 L-250.392731,-23.6252937 L-232.569977,-54.8899193" stroke="grey" fill="none" stroke-width="3" stroke-opacity="0.8" />
<path d="M134.886948,48.396389 L132.455399,51.3527641 L130.787781,54.6192818 L130.291412,57.7858353 L130.452667,63.8174286" stroke="grey" fill="none" stroke-width="3" stroke-opacity="0.8" />
<path d="M-182.485489,-97.1554794 L-182.452148,-101.438988 L-182.855453,-109.76107 L-183.179855,-118.621445 L-182.198486,-121.199524 L-182.377151,-124.096268 L-183.402695,-127.737022 L-183.744598,-134.870041 L-184.743317,-147.842209 L-186.039688,-160.041183 L-186.913467,-173.806747 L-187.132233,-182.465652" stroke="grey" fill="none" stroke-width="3" stroke-opacity="0.8" />
<path d="M131.967117,-122.748825 L135.800522,-117.672379" stroke="grey" fill="none" stroke-width="3" stroke-opacity="0.8" />
<path d="M146.107269,20.4399872 L152.917862,20.4768085 L152.3965,30.1335297 L146.268555,31.1412659 L146.70108,20.1640911" stroke="grey" fill="none" stroke-width="3" stroke-opacity="0.8" />
<path d="M-12.8134089,-205.72081 L-19.0806065,-207.154907 L-22.1266785,-210.550583" stroke="grey" fill="none" stroke-width="3" stroke-opacity="0.8" />
<path d="M-180.591583,-180.06601 L-180.561615,-207.713684 L-180.108856,-233.678177 L-174.699142,-248.018967 L-169.674026,-255.96814 L-158.392029,-267.532715" stroke="grey" fill="none" stroke-width="3" stroke-opacity="0.8" />
<path d="M-186.741272,37.8815193 L-186.791763,35.9310989 L-186.424179,31.3444862 L-185.274414,23.9128723 L-184.305786,16.1369438 L-183.447418,6.30114269 L-182.7388,-0.0849409103 L-182.053864,-7.34012032 L-181.518921,-15.4117699 L-181.566559,-23.6884537 L-181.383957,-31.9635353 L-181.604919,-40.78339 L-181.561935,-43.7669907" stroke="grey" fill="none" stroke-width="3" stroke-opacity="0.8" />
<path d="M-31.6491203,58.6969337 L-42.5527267,58.4717216 L-48.9654465,58.4690285 L-54.7690544,57.4711266 L-58.8149033,53.2774887 L-59.5116196,44.9624023 L-60.0471802,11.8556881 L-60.4438553,1.61445427 L-59.4946518,-4.62074661 L-55.2901497,-9.33547306 L-49.0280647,-10.4661303 L-37.0087357,-10.2811499" stroke="grey" fill="none" stroke-width="3" stroke-opacity="0.8" />
<path d="M-229.632126,73.4818954 L-221.536896,81.940155 L-210.061111,92.3560028 L-203.277222,97.841217" stroke="grey" fill="none" stroke-width="3" stroke-opacity="0.8" />
<path d="M-165.384491,-122.350662 L-165.799438,-131.089798 L-167.067307,-141.595825 L-168.345596,-160.160141 L-169.794556,-172.894257" stroke="grey" fill="none" stroke-width="3" stroke-opacity="0.8" />
<path d="M-134.598312,-140.170273 L-148.745743,-130.069031 L-157.451477,-123.871094 L-163.042114,-120.940956" stroke="grey" fill="none" stroke-width="3" stroke-opacity="0.8" />
<path d="M-209.683533,136.655045 L-201.110931,115.818527" stroke="grey" fill="none" stroke-width="3" stroke-opacity="0.8" />
<path d="M-214.793671,188.171402 L-212.814438,188.516815 L-210.045502,188.543594 L-208.973328,189.657043 L-208.626892,191.468933 L-208.642014,195.32164 L-208.654373,203.8358 L-207.864822,211.590607 L-204.43045,221.766037 L-199.296051,229.579025 L-192.341492,235.387177 L-182.421005,239.82637 L-169.912766,239.98587 L-158.326416,237.283615 L-146.255829,230.483337 L-139.339066,222.122147 L-136.483688,213.558517 L-134.378113,201.689362 L-134.954056,194.264832 L-140.425262,184.228714 L-146.20871,176.382095 L-146.362457,174.377396 L-145.313248,173.062103 L-143.097565,171.290924 L-142.126892,169.572922" stroke="grey" fill="none" stroke-width="3" stroke-opacity="0.8" />
<path d="M-126.542603,229.66983 L-122.660515,221.895859 L-118.369972,208.274155 L-119.373558,185.606445 L-134.327454,158.566971 L-149.32988,139.691666 L-167.855637,122.877769 L-183.491028,109.285904" stroke="grey" fill="none" stroke-width="3" stroke-opacity="0.8" />
<path d="M162.236115,41.3502731 L165.764587,44.6602402 L169.763535,46.7611771 L173.720276,46.4860153 L177.473618,44.319973" stroke="grey" fill="none" stroke-width="3" stroke-opacity="0.8" />
<path d="M144.458115,33.9294395 L147.642151,29.4553947 L149.454208,24.7225304 L150.642563,21.4004097" stroke="grey" fill="none" stroke-width="3" stroke-opacity="0.8" />
<path d="M206.962158,-137.473511 L201.679016,-140.292038 L200.213699,-143.824844 L200.924423,-147.776459 L200.245667,-153.771454 L194.437561,-156.357529 L185.440414,-156.486938 L177.146164,-155.161713 L169.922943,-155.023819 L162.771362,-155.317169 L142.990982,-156.049316 L135.311569,-155.358337 L132.187592,-151.796219 L131.453796,-146.117218 L131.50473,-138.167892 L132.386139,-121.377205 L130.285049,-117.078941" stroke="grey" fill="none" stroke-width="3" stroke-opacity="0.8" />
<path d="M-32.6068954,-30.7311707 L-33.4528732,-34.2951851 L-34.3605042,-36.2950439 L-35.8981094,-37.6127739 L-38.2908058,-38.25317 L-40.9185944,-38.1011467" stroke="grey" fill="none" stroke-width="3" stroke-opacity="0.8" />
<path d="M-202.931442,140.946686 L-209.995407,163.82196 L-211.740524,177.321075 L-212.721664,186.295105 L-212.911819,195.507782" stroke="grey" fill="none" stroke-width="3" stroke-opacity="0.8" />
<path d="M82.2028427,24.5119057 L81.3898392,29.4491863 L80.35009,37.1961327 L76.9214172,42.2071342 L66.267395,50.5385208 L61.0360184,57.4209595 L58.37323,63.5400238 L51.6458206,69.9340515 L24.9495449,89.4521179 L16.2854271,96.8381119 L9.65128899,100.104561 L-12.5238552,103.776306 L-30.1000156,104.583824 L-37.1600876,101.452545 L-42.95578,97.6225052 L-48.9093666,96.5966415 L-60.5349426,96.2974701" stroke="grey" fill="none" stroke-width="3" stroke-opacity="0.8" />
<path d="M-17.4532776,-205.912384 L-26.9429474,-202.089539" stroke="grey" fill="none" stroke-width="3" stroke-opacity="0.8" />
<path d="M130.929733,-147.918304 L127.417824,-152.533157 L109.95829,-183.825821 L104.4813,-190.070587 L92.8427734,-196.584335 L85.3471451,-197.41803 L66.1496964,-197.244156 L46.3723335,-199.124329 L29.1925621,-202.733398 L4.70717955,-204.241959 L-17.6400452,-206.028015 L-23.5686188,-210.582092" stroke="grey" fill="none" stroke-width="3" stroke-opacity="0.8" />
<path d="M129.167648,-117.378143 L132.158173,-122.585434 L131.411591,-135.618134 L131.283493,-147.078674 L132.359695,-152.604797 L134.212326,-155.32135 L140.620514,-156.281204 L165.238464,-155.371429 L179.532318,-155.414856 L189.142654,-156.687103 L197.10289,-155.847595 L200.923309,-152.398071 L200.322983,-146.943756 L200.259415,-142.817642 L203.030167,-139.512878 L207.056427,-138.924652" stroke="grey" fill="none" stroke-width="3" stroke-opacity="0.8" />
<path d="M-95.5436707,-41.2290192 L-98.1917572,-45.2000771 L-98.9263458,-60.6140976 L-99.8919373,-88.6068954 L-101.36409,-107.002975 L-103.131065,-122.317497 L-105.764069,-136.370346 L-105.747414,-148.262924 L-101.097298,-167.444595 L-101.698669,-182.24028 L-116.989471,-198.368591 L-153.802475,-206.134109 L-173.48912,-189.65097 L-179.160645,-177.42218" stroke="grey" fill="none" stroke-width="3" stroke-opacity="0.8" />
<path d="M-101.396774,-107.130035 L-94.3072891,-117.646553 L-81.958931,-119.909538 L-71.3908081,-125.703651 L-57.6303635,-139.140823 L-45.8420868,-158.718246 L-34.5894051,-183.85527 L-26.7209911,-202.177811 L-23.4945412,-210.174896 L-18.9942303,-222.331787" stroke="grey" fill="none" stroke-width="3" stroke-opacity="0.8" />
<path d="M-87.6945572,-41.2975388 L-86.4344025,-35.8243141 L-87.5364532,-14.6168728" stroke="grey" fill="none" stroke-width="3" stroke-opacity="0.8" />
<path d="M-80.5168228,-41.4005661 L-86.5147858,-35.9648819" stroke="grey" fill="none" stroke-width="3" stroke-opacity="0.8" />
<path d="M61.5717239,-29.9786186 L66.088356,-36.2763214" stroke="grey" fill="none" stroke-width="3" stroke-opacity="0.8" />
<path d="M66.371109,-35.8683472 L61.9152184,-30.3521919" stroke="grey" fill="none" stroke-width="3" stroke-opacity="0.8" />
<path d="M115.311546,28.1496143 L104.914825,26.3437519 L82.4541473,24.7471619 L72.7229156,23.6514988 L67.9480591,20.7759781 L65.3974228,15.8954649 L63.980751,7.36457825 L62.4970512,-11.6749735 L61.9924393,-30.3490715 L57.8433189,-35.6813622" stroke="grey" fill="none" stroke-width="3" stroke-opacity="0.8" />
<path d="M149.471069,-118.139389 L133.635788,-117.799202 L129.06012,-117.721649 L108.959785,-116.643417 L98.1672516,-114.083565 L89.7980804,-107.934349 L85.2364807,-98.7128754 L83.8488312,-84.0178986 L83.7155838,-77.3617554 L83.2099762,-65.2715683 L79.2967148,-51.6258202 L72.6280441,-39.62146 L66.3843079,-35.8538971 L58.1160965,-35.3111496 L42.5208931,-34.9541473 L18.4541664,-35.7769623 L-27.5040741,-37.1798172 L-34.806469,-37.2976532 L-80.2752686,-40.7512779 L-87.4790421,-41.1537628 L-95.5436707,-41.2290192" stroke="grey" fill="none" stroke-width="3" stroke-opacity="0.8" />
<circle cx="5.99913979" cy="23.7670994" r="24" fill="blue" fill-opacity="0.8">
<title>DerbyCam1</title>
</circle>
<circle cx="183.666" cy="-73.4324036" r="24" fill="blue" fill-opacity="0.8">
<title>&lt;unnamed&gt;</title>
</circle>
<circle cx="91.0548019" cy="-103.617996" r="24" fill="blue" fill-opacity="0.8">
<title>&lt;unnamed&gt;</title>
</circle>
<circle cx="91.0548019" cy="-103.617996" r="24" fill="blue" fill-opacity="0.8">
<title>&lt;unnamed&gt;</title>
</circle>
<circle cx="184.598007" cy="-116.499001" r="24" fill="blue" fill-opacity="0.8">
<title>&lt;unnamed&gt;</title>
</circle>
<circle cx="184.598007" cy="-116.499001" r="24" fill="blue" fill-opacity="0.8">
<title>&lt;unnamed&gt;</title>
</circle>
<circle cx="41.293499" cy="-155.369003" r="24" fill="blue" fill-opacity="0.8">
<title>&lt;unnamed&gt;</title>
</circle>
<circle cx="10.6957998" cy="-109.875" r="24" fill="blue" fill-opacity="0.8">
<title>&lt;unnamed&gt;</title>
</circle>
<circle cx="10.6957998" cy="-109.875" r="24" fill="blue" fill-opacity="0.8">
<title>&lt;unnamed&gt;</title>
</circle>
<circle cx="-19.1340008" cy="-172.987" r="24" fill="blue" fill-opacity="0.8">
<title>overviewbookmark</title>
</circle>
<circle cx="106.879997" cy="4.28844023" r="24" fill="blue" fill-opacity="0.8">
<title>&lt;unnamed&gt;</title>
</circle>
<circle cx="145.843094" cy="52.3410301" r="24" fill="blue" fill-opacity="0.8">
<title>&lt;unnamed&gt;</title>
</circle>
<circle cx="-24.9414196" cy="60.3238297" r="24" fill="blue" fill-opacity="0.8">
<title>&lt;unnamed&gt;</title>
</circle>
<circle cx="24.8584023" cy="38.0227966" r="24" fill="blue" fill-opacity="0.8">
<title>&lt;unnamed&gt;</title>
</circle>
<circle cx="165.361496" cy="20.2349529" r="24" fill="blue" fill-opacity="0.8">
<title>&lt;unnamed&gt;</title>
</circle>
<circle cx="-52.7502823" cy="38.8105659" r="24" fill="blue" fill-opacity="0.8">
<title>&lt;unnamed&gt;</title>
</circle>
<circle cx="38.2347527" cy="1.9877398" r="24" fill="blue" fill-opacity="0.8">
<title>&lt;unnamed&gt;</title>
</circle>
<circle cx="45.6677818" cy="33.0724564" r="24" fill="blue" fill-opacity="0.8">
<title>&lt;unnamed&gt;</title>
</circle>
<circle cx="-87.233139" cy="-21.0899315" r="24" fill="orange" fill-opacity="0.8">
<title>spawn_default</title>
</circle>
<circle cx="-33.5196381" cy="-1.49968338" r="24" fill="green" fill-opacity="0.8">
<title>spawn_mudarena</title>
</circle>
<circle cx="-173.511536" cy="-107.9645" r="24" fill="green" fill-opacity="0.8">
<title>spawn_littlepass</title>
</circle>
<circle cx="50.6579933" cy="-145.191666" r="24" fill="green" fill-opacity="0.8">
<title>spawn_concretearena</title>
</circle>
<text x="-87.233139" y="-53.0899315" font-size="32" fill="white" text-anchor="middle" dy="0em">spawn_default</text>
<text x="-33.5196381" y="-33.49968338" font-size="32" fill="white" text-anchor="middle" dy="0em">spawn_mudarena</text>
<text x="-173.511536" y="-139.9645" font-size="32" fill="white" text-anchor="middle" dy="0em">spawn_littlepass</text>
<text x="50.6579933" y="-177.191666" font-size="32" fill="white" text-anchor="middle" dy="0em">spawn_concretearena</text>
</svg>